<svg xmlns="http://www.w3.org/2000/svg"
     viewBox="0 0 300 212"
     width="64" height="64"
     preserveAspectRatio="xMidYMid meet">
<g transform="translate(0.000000,212.000000) scale(0.100000,-0.100000)"
fill="currentColor" stroke="none">
<path d="M2250 1991 c-5 -11 -10 -40 -10 -65 0 -44 -1 -46 -30 -46 -16 0 -30
-4 -30 -8 0 -4 -16 -6 -35 -4 -26 3 -36 0 -41 -13 -5 -12 -16 5 -38 57 -30 67
-35 73 -62 73 -42 0 -42 -31 1 -148 22 -61 33 -107 29 -122 -7 -28 6 -54 53
-106 34 -38 35 -41 28 -96 -6 -49 -37 -158 -48 -169 -2 -2 -29 5 -60 16 -31
11 -68 20 -82 20 -17 0 -43 18 -83 58 -113 113 -262 174 -427 176 -55 0 -125
-5 -155 -13 -100 -24 -211 -83 -281 -148 -56 -53 -72 -63 -121 -72 -31 -5 -79
-20 -105 -33 l-48 -23 0 -130 0 -130 58 -3 c31 -2 57 -7 57 -12 0 -4 -16 -17
-35 -29 l-35 -20 0 -96 c0 -89 2 -101 36 -171 45 -95 60 -103 199 -99 55 1
108 5 118 10 19 8 106 -50 107 -72 0 -6 -33 -23 -72 -38 -251 -94 -270 -112
-319 -329 -18 -82 -17 -96 6 -96 12 0 20 28 56 198 13 65 31 80 201 161 141
68 141 68 147 50 2 -7 -2 -9 -10 -5 -8 4 -5 1 5 -8 10 -8 23 -13 27 -10 5 3 9
1 9 -5 0 -6 -10 -15 -21 -22 -15 -8 -19 -8 -15 0 4 6 2 11 -4 11 -6 0 -9 4 -6
9 3 5 -1 12 -10 15 -38 15 -32 -3 21 -62 l45 -50 -42 -7 c-63 -11 -68 -18 -68
-104 0 -102 9 -151 27 -151 15 0 15 6 -4 149 -4 34 -3 43 8 39 10 -3 15 -29
17 -96 2 -76 6 -92 19 -92 15 0 15 31 -3 120 -2 14 2 34 9 44 13 17 25 18 206
11 151 -6 194 -10 198 -21 3 -8 -2 -47 -10 -87 l-16 -72 4 65 c5 71 -7 50 -18
-33 -6 -45 -6 -47 18 -47 26 0 32 14 56 138 6 34 16 65 22 69 11 7 5 -34 -24
-151 -10 -44 -18 -80 -16 -82 1 -2 8 0 15 5 9 6 49 182 56 250 0 9 -16 20 -43
28 -24 7 -46 14 -48 16 -2 2 15 17 37 32 23 16 48 41 57 56 19 32 51 41 146
43 42 1 67 5 67 12 0 20 29 39 42 26 19 -19 38 34 38 103 0 34 7 79 15 99 9
22 17 73 18 126 l2 88 28 5 c20 3 26 0 23 -10 -4 -10 -1 -10 17 1 12 8 56 21
97 29 41 9 88 20 103 26 16 6 30 11 32 11 5 0 -50 -206 -70 -260 -9 -25 -29
-99 -46 -165 -16 -66 -57 -190 -90 -275 -34 -85 -63 -162 -66 -170 -8 -23 54
68 92 135 23 42 47 115 80 245 65 254 131 472 161 533 23 44 25 58 19 111 -3
34 -31 142 -61 241 -30 99 -54 187 -54 196 0 9 7 30 15 45 19 37 19 70 0 124
-8 24 -15 77 -15 119 0 47 -5 82 -12 89 -18 18 -46 14 -58 -7z m48 -39 c3 -25
-1 -32 -15 -32 -17 -1 -17 -1 0 -14 9 -7 17 -26 17 -43 0 -16 9 -55 19 -85
l19 -56 -23 -51 c-17 -36 -33 -55 -57 -66 l-33 -15 44 3 45 2 37 -138 36 -139
-76 6 c-42 3 -110 8 -152 12 l-77 6 20 57 c11 31 21 85 22 121 1 47 5 67 16
72 11 5 9 7 -7 7 -25 1 -83 74 -83 104 0 23 81 107 103 107 27 0 30 -33 4 -55
-21 -17 -53 -83 -44 -91 1 -2 22 12 46 31 23 19 51 37 61 40 12 4 21 20 25 44
4 26 14 42 28 49 20 10 20 11 -10 11 -32 1 -33 0 -33 -44 0 -37 -3 -45 -19
-45 -14 0 -20 10 -25 43 -10 63 0 80 40 75 l34 -4 0 56 c0 31 3 60 7 64 14 13
28 -1 31 -32z m-259 -23 c7 -21 7 -29 -2 -29 -6 0 -1 -7 11 -16 25 -17 29 -34
8 -34 -8 0 -17 -4 -20 -9 -3 -4 7 -8 22 -7 22 1 28 -4 30 -25 2 -15 -5 -32
-16 -42 -18 -17 -20 -14 -52 81 -34 99 -36 148 -6 123 8 -7 19 -25 25 -42z
m129 -91 c2 -12 -3 -18 -17 -18 -11 0 -23 -4 -26 -10 -10 -16 -25 -12 -20 5 3
8 7 22 10 31 7 21 49 14 53 -8z m-595 -269 c58 -19 81 -70 82 -181 0 -47 -2
-89 -5 -91 -3 -3 -32 1 -65 9 -78 20 -290 20 -367 1 -67 -17 -68 -15 -68 69 0
176 54 217 275 210 61 -2 127 -10 148 -17z m-489 -106 c-8 -25 -14 -80 -14
-122 l0 -76 -58 -31 c-69 -37 -87 -65 -123 -195 -31 -108 -28 -145 13 -189 17
-18 55 -86 96 -173 3 -5 -5 -4 -16 2 -33 18 -139 238 -147 306 -7 49 -5 59 14
79 18 19 21 34 21 103 0 90 16 138 69 210 28 39 137 133 153 133 3 0 0 -21 -8
-47z m718 -22 c104 -97 138 -167 138 -281 0 -62 4 -88 16 -101 14 -15 14 -29
5 -108 -14 -111 -41 -188 -81 -226 -36 -35 -38 -27 -6 23 14 20 34 66 47 102
l22 65 -22 97 c-32 137 -54 176 -123 217 l-58 34 0 77 c0 42 -6 98 -14 123 -8
26 -10 47 -6 47 4 0 41 -31 82 -69z m-914 -103 c-7 -13 -14 -25 -15 -27 -1 -2
-9 3 -17 12 -9 9 -26 13 -43 9 -19 -3 -25 -1 -18 6 12 12 39 19 78 21 25 1 26
0 15 -21z m1112 1 c24 -7 24 -7 -5 -8 -17 -1 -36 -6 -43 -13 -9 -9 -15 -8 -27
8 -8 10 -15 22 -15 26 0 8 43 1 90 -13z m275 -35 c135 -8 135 -8 135 -53 0
-24 -9 -52 -25 -75 -28 -41 -23 -47 12 -14 l23 21 0 -47 c0 -44 -2 -48 -35
-62 -40 -17 -83 -18 -122 -4 l-28 10 25 -19 c22 -18 23 -20 7 -26 -9 -4 -23
-5 -31 -2 -8 3 -34 0 -59 -8 -53 -16 -128 -22 -145 -11 -25 15 -13 36 21 36
45 0 57 15 57 71 l0 46 62 7 c86 9 92 22 8 18 l-68 -4 -4 67 -3 67 40 -6 c22
-4 81 -9 130 -12z m-1429 -46 c-3 -29 -6 -81 -6 -116 l0 -63 -57 3 -58 3 -3
113 -3 112 67 0 67 0 -7 -52z m1242 -65 l3 -112 -45 -6 c-83 -13 -86 -9 -86
114 0 59 3 111 7 115 4 4 32 6 63 4 l55 -3 3 -112z m-498 87 c59 -12 123 -33
170 -57 65 -33 78 -44 98 -84 12 -25 28 -78 36 -117 8 -40 19 -79 26 -87 7 -9
10 -18 7 -22 -4 -3 -15 5 -26 18 -16 19 -20 20 -21 8 0 -9 7 -22 15 -29 8 -7
15 -17 15 -22 0 -6 -7 -5 -15 2 -9 7 -19 10 -23 6 -4 -4 1 -14 12 -21 20 -15
14 -35 -11 -35 -12 0 -13 -3 -4 -14 23 -27 -40 -126 -80 -126 -16 0 -16 4 5
53 12 28 28 79 35 112 8 33 22 76 32 97 17 34 18 39 3 90 -27 90 -38 104 -116
142 -100 49 -174 67 -305 73 -151 8 -276 -15 -384 -68 -72 -37 -80 -44 -103
-94 -14 -29 -26 -61 -26 -69 0 -9 -7 -16 -14 -16 -13 0 -12 9 3 53 32 93 46
112 108 144 149 80 365 104 563 63z m-66 -56 c57 -10 76 -16 81 -24 3 -4 -4
-6 -15 -3 -13 4 -42 -8 -79 -31 -32 -19 -80 -45 -107 -56 -76 -33 -226 -60
-330 -60 -85 0 -94 2 -94 19 0 56 126 129 260 151 41 6 82 13 90 15 16 4 158
-4 194 -11z m45 -79 c-19 -14 -34 -31 -34 -38 0 -19 -74 -55 -200 -96 -179
-59 -317 -76 -409 -50 -35 10 -37 12 -23 26 13 13 21 13 52 3 65 -21 212 -7
358 35 131 37 224 72 215 80 -3 3 -25 -4 -49 -14 -24 -11 -105 -36 -179 -55
-113 -30 -152 -36 -237 -36 -62 0 -103 4 -103 10 0 6 45 10 114 10 173 0 380
57 466 129 14 11 34 20 44 21 16 0 12 -6 -15 -25z m68 -16 c-33 -42 -118 -103
-193 -139 -147 -69 -499 -119 -542 -76 -27 27 -2 34 78 23 118 -16 193 -2 455
89 59 20 117 58 164 107 41 44 73 40 38 -4z m119 20 c31 -19 54 -46 54 -64 0
-8 -83 49 -99 69 -20 23 4 21 45 -5z m-83 -41 c-31 -53 -141 -135 -230 -173
-120 -50 -257 -85 -328 -84 -102 1 -109 15 -10 22 189 11 393 95 503 206 70
70 95 81 65 29z m120 -117 l22 -25 -30 23 c-44 33 -95 100 -88 117 4 10 16 -2
40 -38 19 -29 44 -64 56 -77z m51 -20 c-7 -7 -104 99 -104 113 0 5 25 -17 55
-49 30 -32 52 -61 49 -64z m-72 9 c58 -46 51 -54 -9 -11 -43 31 -83 81 -83
103 0 7 10 -2 21 -19 11 -18 43 -51 71 -73z m-126 -60 c-69 -5 -136 -24 -124
-35 2 -2 54 1 116 6 111 10 114 9 141 -14 26 -21 27 -25 16 -58 -44 -126 -114
-208 -239 -277 -43 -24 -79 -42 -81 -40 -1 2 0 18 2 36 4 23 11 32 24 32 10 0
21 5 25 11 5 8 -1 10 -20 7 -14 -3 -26 -2 -26 1 0 4 27 13 61 20 39 8 59 16
56 24 -3 7 -11 10 -18 8 -57 -16 -128 -31 -149 -31 -30 0 -16 17 20 23 14 2 5
2 -20 -1 -25 -3 -57 -5 -72 -5 -40 0 -24 -16 23 -23 24 -4 36 -10 29 -14 -9
-5 -9 -9 -1 -14 6 -4 11 -25 11 -47 l0 -39 -34 14 c-40 17 -141 83 -203 133
-37 30 -103 118 -103 136 0 4 27 7 61 7 67 0 152 19 225 50 26 11 49 18 53 15
3 -4 7 -40 9 -81 4 -63 2 -74 -12 -74 -9 0 -16 7 -16 15 0 8 -5 15 -11 15 -6
0 -9 -10 -7 -21 2 -18 10 -22 43 -22 80 0 95 3 95 18 0 8 -4 15 -10 15 -5 0
-10 -4 -10 -10 0 -5 -4 -10 -10 -10 -5 0 -10 15 -10 34 0 19 -4 38 -10 41 -6
4 -10 -10 -10 -34 0 -23 -5 -41 -10 -41 -6 0 -9 24 -8 58 2 31 0 69 -4 83 -7
23 -1 30 60 72 37 25 89 69 117 97 l50 50 31 -62 32 -63 -82 -5z m-809 -15 c9
-27 33 -85 55 -127 21 -43 34 -78 28 -78 -6 0 -26 6 -44 14 -37 16 -52 52 -65
171 l-8 70 -2 -63 c-1 -74 13 -137 38 -170 10 -13 42 -32 72 -43 53 -18 54
-18 17 -19 -64 0 -84 14 -119 85 -27 55 -33 82 -37 149 -4 70 -2 85 14 100 18
18 18 18 26 -10 5 -16 16 -51 25 -79z m1186 -10 c-2 -54 -7 -113 -13 -131 -16
-48 -57 -84 -94 -83 l-31 1 29 8 c49 15 97 74 95 117 0 11 -7 4 -16 -17 -18
-42 -51 -80 -71 -80 -7 0 -12 3 -10 8 34 65 50 114 65 190 14 71 21 92 33 89
12 -2 15 -20 13 -102z m-493 53 c-14 -12 -71 -43 -126 -70 -83 -39 -118 -50
-190 -59 -152 -19 -278 2 -304 51 -11 21 -11 21 27 4 81 -36 162 -47 247 -34
83 12 226 59 311 102 63 32 66 32 35 6z m253 -17 c32 -20 51 -52 30 -51 -10 1
-42 29 -68 59 -23 27 -16 26 38 -8z m-711 -198 c29 -57 25 -68 -23 -61 -26 3
-39 28 -15 28 9 0 16 5 16 11 0 5 -8 9 -17 8 -33 -3 -37 1 -17 16 18 14 18 14
-7 15 -18 0 -30 8 -40 28 -7 15 -15 30 -17 34 -2 3 18 -1 45 -9 43 -14 51 -22
75 -70z m897 -141 c-46 -39 -161 -56 -236 -34 -31 8 -53 21 -53 28 0 8 4 14 9
14 5 0 22 18 38 40 26 37 31 40 62 34 84 -14 151 -15 178 0 28 14 28 14 31
-20 3 -28 -2 -39 -29 -62z m-504 -1 c3 -5 2 -12 -3 -15 -4 -2 -7 -30 -5 -60 1
-35 -2 -56 -9 -56 -7 0 -7 -4 -1 -12 12 -17 14 -58 3 -58 -5 0 -7 -8 -3 -17 4
-11 2 -15 -3 -10 -10 10 -15 137 -5 137 4 0 6 23 5 50 -2 46 7 63 21 41z m-72
-117 c17 -4 27 -13 27 -25 0 -16 -4 -17 -31 -7 -37 13 -151 98 -157 117 -2 7
27 -8 64 -33 38 -25 81 -48 97 -52z m277 80 c0 -27 -66 -81 -125 -103 -68 -26
-75 -26 -75 -2 0 14 21 30 73 56 39 21 81 44 92 51 26 18 35 18 35 -2z m29
-91 c-7 -8 -18 -12 -25 -9 -9 3 -11 -1 -7 -12 5 -15 3 -15 -13 2 -14 14 -16
20 -6 23 7 3 18 11 25 18 18 19 42 -2 26 -22z m-426 -10 c-16 -27 -16 -27 2
-11 17 15 20 15 61 -5 44 -21 59 -40 27 -35 -10 2 -21 10 -25 18 -5 12 -7 12
-7 -2 -1 -10 -6 -18 -12 -18 -6 0 -8 10 -5 23 l6 22 -11 -22 c-7 -13 -16 -23
-21 -23 -11 0 -10 17 2 25 6 3 10 11 10 18 0 6 -6 2 -14 -9 -14 -18 -16 -18
-32 -2 -14 14 -15 20 -4 32 7 9 19 16 26 16 12 0 11 -5 -3 -27z m372 -14 c11
-17 -5 -25 -16 -9 -8 11 -8 8 -3 -10 l7 -25 -23 20 -23 20 13 -25 13 -25 -23
20 -23 20 11 -22 c10 -18 9 -21 -6 -18 -9 2 -19 4 -22 5 -3 1 -15 1 -27 0 -13
-1 -23 3 -23 9 0 5 9 8 20 6 11 -2 20 0 20 6 0 5 3 8 8 7 4 0 23 6 42 15 42
20 47 20 55 6z m-225 -84 l0 -26 -117 3 c-71 2 -118 7 -120 14 -4 12 94 30
180 32 55 2 57 1 57 -23z m249 -10 c70 -18 -70 -34 -161 -19 -31 5 -38 11 -38
29 0 22 0 22 88 9 48 -7 98 -16 111 -19z"/>
<path d="M2304 1535 c4 -11 12 -42 18 -70 11 -50 28 -83 28 -54 0 28 -29 122
-41 133 -9 8 -10 6 -5 -9z"/>
<path d="M760 1282 c-16 -13 -21 -24 -16 -40 15 -46 76 -35 76 14 0 34 -32 48
-60 26z"/>
<path d="M750 1165 c-10 -12 -10 -21 -2 -40 21 -45 77 -23 70 27 -4 28 -48 37
-68 13z"/>
<path d="M2000 1276 c-20 -25 -8 -61 22 -64 37 -4 57 31 32 59 -20 23 -37 24
-54 5z"/>
<path d="M2000 1160 c-17 -17 -18 -24 -10 -41 17 -31 41 -35 61 -10 34 42 -14
88 -51 51z"/>
<path d="M1598 873 c-22 -6 -23 -31 -2 -61 11 -17 25 -22 57 -22 48 0 59 6 77
39 l13 24 -28 -21 c-34 -27 -86 -29 -108 -4 -26 28 -21 32 38 32 30 0 55 5 55
10 0 10 -69 12 -102 3z"/>
</g>
</svg>
